<svg height="161.74957653198248" version="1.1" width="192.45386169433593" xmlns="http://www.w3.org/2000/svg" xmlns:xlink="http://www.w3.org/1999/xlink" style="overflow: hidden; position: relative; top: -0.796875px;" viewBox="210.27306915283205 132 192.45386169433593 161.74957653198248" preserveAspectRatio="xMinYMin" id="main_svg"><desc style="-webkit-tap-highlight-color: rgba(0, 0, 0, 0);">Created with Logotizer</desc><defs style="-webkit-tap-highlight-color: rgba(0, 0, 0, 0);"><linearGradient id="gradient_fxwhfdnddw60wqfa0qnvbg" x1="1.8369701987210297e-16" y1="0" x2="0" y2="1" style="-webkit-tap-highlight-color: rgba(0, 0, 0, 0);"><stop offset="10%" stop-color="#1d91cc" stop-opacity="1" style="-webkit-tap-highlight-color: rgba(0, 0, 0, 0);"></stop><stop offset="80%" stop-color="#6aaf0e" stop-opacity="1" style="-webkit-tap-highlight-color: rgba(0, 0, 0, 0);"></stop></linearGradient></defs><path fill="#44a933" stroke="#266098" d="M-104.13,-29.77L-104.13,-33.61L-83.48,-33.61L-83.48,-29.77L-90.91,-29.77L-90.91,0L-96.67,0L-96.67,-29.77L-104.13,-29.77ZM-84.44,-24L-78.93,-24L-74.59,-5.27Q-74.45,-4.64,-74.27,-4.31Q-74.08,-3.98,-73.87,-3.84Q-73.68,-3.66,-73.4,-3.61L-69.56,-24L-64.05,-24L-68.59,0.47Q-69.56,5.55,-71.66,7.82Q-73.77,10.08,-77.24,10.08Q-78.67,10.08,-79.9,9.8Q-81.13,9.52,-82.05,9.12L-82.05,6.73L-78.93,6.73Q-78.02,6.73,-77.29,6.46Q-76.56,6.19,-75.99,5.5Q-75.41,4.8,-74.96,3.57Q-74.5,2.34,-74.13,0.47Q-76.28,0.47,-77.91,-1.14Q-79.54,-2.74,-80.13,-5.27L-84.44,-24ZM-59.5,9.61L-59.5,-24L-55.42,-24L-54.7,-22.57L-54.46,-22.57Q-53.69,-23.3,-52.45,-23.88Q-51.2,-24.47,-49.19,-24.47Q-47.41,-24.47,-45.9,-23.8Q-44.38,-23.13,-43.31,-21.64Q-42.23,-20.16,-41.62,-17.78Q-41.01,-15.4,-41.01,-12Q-41.01,-8.6,-41.62,-6.22Q-42.23,-3.84,-43.35,-2.36Q-44.48,-0.87,-46.08,-0.2Q-47.69,0.47,-49.66,0.47Q-50.9,0.47,-51.93,0.14Q-52.96,-0.19,-53.74,-0.73L-53.74,9.61L-59.5,9.61M-53.74,-3.84Q-53.36,-3.47,-52.68,-3.18Q-52,-2.88,-51.09,-2.88Q-50.17,-2.88,-49.39,-3.29Q-48.6,-3.7,-48.03,-4.73Q-47.45,-5.77,-47.11,-7.54Q-46.77,-9.3,-46.77,-12Q-46.77,-14.7,-47.11,-16.46Q-47.45,-18.23,-48.03,-19.27Q-48.6,-20.3,-49.4,-20.71Q-50.2,-21.12,-51.09,-21.12Q-52,-21.12,-52.61,-20.84Q-53.22,-20.55,-53.74,-20.16L-53.74,-3.84ZM-35.99,0L-35.99,-24L-30.46,-24L-30.46,-9.35L-30.23,-9.35L-23.99,-24L-17.76,-24L-17.76,0L-23.27,0L-23.27,-15.12L-23.5,-15.12L-30.23,0L-35.99,0ZM-12.72,-12Q-12.72,-15.4,-12.1,-17.78Q-11.48,-20.16,-10.25,-21.64Q-9.02,-23.13,-7.25,-23.8Q-5.48,-24.47,-3.11,-24.47Q-1.28,-24.47,0.37,-24.19Q2.02,-23.91,3.12,-23.53L3.12,-21.12L-2.17,-21.12Q-3.27,-21.12,-4.13,-20.71Q-4.99,-20.3,-5.64,-19.27Q-6.3,-18.23,-6.63,-16.46Q-6.95,-14.7,-6.95,-12Q-6.95,-9.3,-6.6,-7.54Q-6.25,-5.77,-5.57,-4.73Q-4.89,-3.7,-3.91,-3.29Q-2.92,-2.88,-1.68,-2.88L3.59,-2.88L3.59,-0.47Q2.49,-0.09,0.84,0.19Q-0.81,0.47,-2.64,0.47Q-5.2,0.47,-7.06,-0.2Q-8.92,-0.87,-10.2,-2.36Q-11.48,-3.84,-12.1,-6.22Q-12.72,-8.6,-12.72,-12ZM4.76,-20.39L4.76,-24L22.53,-24L22.53,-20.39L16.53,-20.39L16.53,0L10.76,0L10.76,-20.39L4.76,-20.39ZM24.43,-12.47L24.43,-16.31L39.8,-16.31L39.8,-12.47L24.43,-12.47ZM44.35,9.61L44.35,-24L48.43,-24L49.16,-22.57L49.39,-22.57Q50.16,-23.3,51.41,-23.88Q52.65,-24.47,54.66,-24.47Q56.44,-24.47,57.96,-23.8Q59.47,-23.13,60.55,-21.64Q61.62,-20.16,62.23,-17.78Q62.84,-15.4,62.84,-12Q62.84,-8.6,62.23,-6.22Q61.62,-3.84,60.5,-2.36Q59.37,-0.87,57.77,-0.2Q56.16,0.47,54.19,0.47Q52.95,0.47,51.92,0.14Q50.89,-0.19,50.12,-0.73L50.12,9.61L44.35,9.61M50.12,-3.84Q50.49,-3.47,51.17,-3.18Q51.85,-2.88,52.76,-2.88Q53.68,-2.88,54.46,-3.29Q55.25,-3.7,55.82,-4.73Q56.4,-5.77,56.74,-7.54Q57.08,-9.3,57.08,-12Q57.08,-14.7,56.74,-16.46Q56.4,-18.23,55.82,-19.27Q55.25,-20.3,54.45,-20.71Q53.66,-21.12,52.76,-21.12Q51.85,-21.12,51.24,-20.84Q50.63,-20.55,50.12,-20.16L50.12,-3.84ZM67.86,0L67.86,-24L71.94,-24L72.66,-22.08L72.9,-22.08Q73.67,-22.8,74.97,-23.4Q76.27,-24,78.43,-24L81.55,-24L81.55,-19.92L76.27,-19.92Q75.36,-19.92,74.68,-19.63Q74,-19.34,73.62,-18.96L73.62,0L67.86,0ZM83.47,-12Q83.47,-15.4,84.09,-17.78Q84.71,-20.16,85.94,-21.64Q87.17,-23.13,88.95,-23.8Q90.73,-24.47,93.08,-24.47Q95.42,-24.47,97.19,-23.8Q98.96,-23.13,100.19,-21.64Q101.42,-20.16,102.04,-17.78Q102.66,-15.4,102.66,-12Q102.66,-8.6,102.04,-6.22Q101.42,-3.84,100.19,-2.36Q98.96,-0.87,97.19,-0.2Q95.42,0.47,93.08,0.47Q90.73,0.47,88.95,-0.2Q87.17,-0.87,85.94,-2.36Q84.71,-3.84,84.09,-6.22Q83.47,-8.6,83.47,-12M89.23,-12Q89.23,-9.21,89.51,-7.39Q89.8,-5.58,90.32,-4.51Q90.85,-3.45,91.55,-3.05Q92.26,-2.65,93.08,-2.65Q93.9,-2.65,94.59,-3.05Q95.28,-3.45,95.81,-4.51Q96.34,-5.58,96.62,-7.39Q96.9,-9.21,96.9,-12Q96.9,-14.79,96.62,-16.61Q96.34,-18.42,95.81,-19.49Q95.28,-20.55,94.59,-20.95Q93.9,-21.35,93.08,-21.35Q92.26,-21.35,91.55,-20.95Q90.85,-20.55,90.32,-19.49Q89.8,-18.42,89.51,-16.61Q89.23,-14.79,89.23,-12Z" stroke-width="2" transform="matrix(0.92,0,0,0.92,306.5,282.7972)" style="-webkit-tap-highlight-color: rgba(0, 0, 0, 0);"></path><path fill="url(#gradient_fxwhfdnddw60wqfa0qnvbg)" stroke="none" d="M56.321,77.839L62,69.538L50,52L11,109H21.92L50,68.788L56.321,77.839ZM110,52L98,69.538L103.679,77.839L110,68.788L138.08,109H149L110,52ZM41,109H51.92L80,68.788L108.08,109H119L80,52L41,109Z" stroke-width="0" opacity="1" fill-opacity="1" stroke-opacity="1" transform="matrix(1,0,0,1,223,80)" style="-webkit-tap-highlight-color: rgba(0, 0, 0, 0); opacity: 1; fill-opacity: 1;"></path><path fill="#27a62e" stroke="#176675" d="M104.5,53C111,54,124,57.5,127,64C123,60.5,115.5,56.5,97,55C100,63,101,72,103,86C107.5,90.5,130.5,93.5,136,87.5C133.5,77.5,130.5,60,123.5,56.5S102.5,48.5,92.5,51.5S26.5,81,26.5,81L93.5,53.5A25.565,25.565,0,0,1,104.5,53ZM103,89.5V96.5L110.5,98.5L105.5,94L115.5,98C112,93.5,103,89.5,103,89.5ZM89,90L88.5,87L24.5,100L89,90ZM94.863,71.188L24.5,92L95.32,74.17099999999999Q95.092,72.63499999999999,94.863,71.18799999999999ZM93.995,66.17L23.5,90L94.528,69.139Q94.269,67.609,93.995,66.17099999999999ZM91.507,56.415L25.5,84L92.383,59.228Q91.976,57.792,91.50699999999999,56.415ZM144,113L122.612,113.345A3.274,3.274,0,0,0,124,111S133.5,112,136.5,108.5S137,91,137,91L129,99L135.5,95.5L133,99.5L136,98V104S135.5,108,132,108H105L103,99.5L102,108L83.5,108.5S83,96.5,77.5,96S72,109,72,109L37.5,110S37,101.5,34.5,101.5S32,110.5,32,110.5L24.5,111L26,112H32A4.124,4.124,0,0,0,33.275,114.786L20,115V117H147ZM40.851,114.664A4.139,4.139,0,0,0,42,112H52.013A4.146,4.146,0,0,0,52.973,114.468ZM61.138999999999996,114.336A4.166,4.166,0,0,0,62,112H73A3.368,3.368,0,0,0,73.993,114.13ZM86.18299999999999,113.93299999999999A3.297,3.297,0,0,0,87,112L108,111.5A2.773,2.773,0,0,0,109.397,113.55799999999999ZM92.91499999999999,61.21999999999999L24.5,87L93.586,64.137Q93.268,62.639,92.91499999999999,61.221000000000004Z" stroke-width="1.7999999999999998" opacity="1" transform="matrix(1,0,0,1,216,135)" style="-webkit-tap-highlight-color: rgba(0, 0, 0, 0); opacity: 1;"></path></svg>